<mxfile host="app.diagrams.net" modified="2021-12-04T14:23:57.318Z" agent="5.0 (X11; Linux x86_64) AppleWebKit/537.36 (KHTML, like Gecko) Chrome/94.0.4606.54 Safari/537.36" etag="H3Ticqy9SC98oAnO1UIf" version="15.9.1" type="github">
  <diagram id="kh1FzGxxa8HBIFuY6lTL" name="Page-1">
    <mxGraphModel dx="3020" dy="2235" grid="1" gridSize="10" guides="1" tooltips="1" connect="1" arrows="1" fold="1" page="1" pageScale="1" pageWidth="850" pageHeight="1100" math="0" shadow="0">
      <root>
        <mxCell id="0" />
        <mxCell id="1" parent="0" />
        <mxCell id="W3kfkjVsVUUDzjyGJnqS-10" style="edgeStyle=orthogonalEdgeStyle;rounded=0;orthogonalLoop=1;jettySize=auto;html=1;entryX=1;entryY=0.25;entryDx=0;entryDy=0;" edge="1" parent="1" source="W3kfkjVsVUUDzjyGJnqS-1" target="W3kfkjVsVUUDzjyGJnqS-3">
          <mxGeometry relative="1" as="geometry" />
        </mxCell>
        <mxCell id="W3kfkjVsVUUDzjyGJnqS-95" style="edgeStyle=orthogonalEdgeStyle;rounded=0;orthogonalLoop=1;jettySize=auto;html=1;entryX=1;entryY=0.5;entryDx=0;entryDy=0;" edge="1" parent="1" source="W3kfkjVsVUUDzjyGJnqS-1" target="W3kfkjVsVUUDzjyGJnqS-89">
          <mxGeometry relative="1" as="geometry">
            <Array as="points">
              <mxPoint x="780" y="430" />
            </Array>
          </mxGeometry>
        </mxCell>
        <mxCell id="W3kfkjVsVUUDzjyGJnqS-96" value="Start Time" style="edgeLabel;html=1;align=center;verticalAlign=middle;resizable=0;points=[];" vertex="1" connectable="0" parent="W3kfkjVsVUUDzjyGJnqS-95">
          <mxGeometry x="0.6321" y="-2" relative="1" as="geometry">
            <mxPoint as="offset" />
          </mxGeometry>
        </mxCell>
        <mxCell id="W3kfkjVsVUUDzjyGJnqS-1" value="Employee&lt;br&gt;EE3" style="shape=cube;whiteSpace=wrap;html=1;boundedLbl=1;backgroundOutline=1;darkOpacity=0.05;darkOpacity2=0.1;fillColor=#fff2cc;strokeColor=#d6b656;" vertex="1" parent="1">
          <mxGeometry x="720" y="14" width="120" height="80" as="geometry" />
        </mxCell>
        <mxCell id="W3kfkjVsVUUDzjyGJnqS-2" value="P 1.1" style="swimlane;childLayout=stackLayout;horizontal=1;startSize=30;horizontalStack=0;rounded=1;fontSize=14;fontStyle=0;strokeWidth=2;resizeParent=0;resizeLast=1;shadow=0;dashed=0;align=center;verticalAlign=middle;fillColor=#ffcccc;strokeColor=#36393d;" vertex="1" parent="1">
          <mxGeometry x="500" y="9" width="120" height="90" as="geometry" />
        </mxCell>
        <mxCell id="W3kfkjVsVUUDzjyGJnqS-3" value="Choose Vacation Type" style="align=center;strokeColor=none;fillColor=none;spacingLeft=4;fontSize=12;verticalAlign=middle;resizable=0;rotatable=0;part=1;" vertex="1" parent="W3kfkjVsVUUDzjyGJnqS-2">
          <mxGeometry y="30" width="120" height="60" as="geometry" />
        </mxCell>
        <mxCell id="W3kfkjVsVUUDzjyGJnqS-6" value="P 1.2" style="swimlane;childLayout=stackLayout;horizontal=1;startSize=30;horizontalStack=0;rounded=1;fontSize=14;fontStyle=0;strokeWidth=2;resizeParent=0;resizeLast=1;shadow=0;dashed=0;align=center;verticalAlign=middle;fillColor=#ffcccc;strokeColor=#36393d;" vertex="1" parent="1">
          <mxGeometry x="250" y="10" width="120" height="90" as="geometry" />
        </mxCell>
        <mxCell id="W3kfkjVsVUUDzjyGJnqS-7" value="Upload documents &amp;&#xa;Fill Data" style="align=center;strokeColor=none;fillColor=none;spacingLeft=4;fontSize=12;verticalAlign=middle;resizable=0;rotatable=0;part=1;" vertex="1" parent="W3kfkjVsVUUDzjyGJnqS-6">
          <mxGeometry y="30" width="120" height="60" as="geometry" />
        </mxCell>
        <mxCell id="W3kfkjVsVUUDzjyGJnqS-8" value="P 1.3" style="swimlane;childLayout=stackLayout;horizontal=1;startSize=30;horizontalStack=0;rounded=1;fontSize=14;fontStyle=0;strokeWidth=2;resizeParent=0;resizeLast=1;shadow=0;dashed=0;align=center;verticalAlign=middle;fillColor=#ffcccc;strokeColor=#36393d;" vertex="1" parent="1">
          <mxGeometry y="9" width="120" height="90" as="geometry" />
        </mxCell>
        <mxCell id="W3kfkjVsVUUDzjyGJnqS-9" value="Submit Vacation" style="align=center;strokeColor=none;fillColor=none;spacingLeft=4;fontSize=12;verticalAlign=middle;resizable=0;rotatable=0;part=1;" vertex="1" parent="W3kfkjVsVUUDzjyGJnqS-8">
          <mxGeometry y="30" width="120" height="60" as="geometry" />
        </mxCell>
        <mxCell id="W3kfkjVsVUUDzjyGJnqS-11" style="edgeStyle=orthogonalEdgeStyle;rounded=0;orthogonalLoop=1;jettySize=auto;html=1;entryX=1;entryY=0.5;entryDx=0;entryDy=0;" edge="1" parent="1" source="W3kfkjVsVUUDzjyGJnqS-3" target="W3kfkjVsVUUDzjyGJnqS-7">
          <mxGeometry relative="1" as="geometry" />
        </mxCell>
        <mxCell id="W3kfkjVsVUUDzjyGJnqS-13" value="Vacation Request" style="edgeLabel;html=1;align=center;verticalAlign=middle;resizable=0;points=[];" vertex="1" connectable="0" parent="W3kfkjVsVUUDzjyGJnqS-11">
          <mxGeometry x="0.1082" y="-2" relative="1" as="geometry">
            <mxPoint as="offset" />
          </mxGeometry>
        </mxCell>
        <mxCell id="W3kfkjVsVUUDzjyGJnqS-12" style="edgeStyle=orthogonalEdgeStyle;rounded=0;orthogonalLoop=1;jettySize=auto;html=1;entryX=1;entryY=0.5;entryDx=0;entryDy=0;" edge="1" parent="1" source="W3kfkjVsVUUDzjyGJnqS-7" target="W3kfkjVsVUUDzjyGJnqS-9">
          <mxGeometry relative="1" as="geometry" />
        </mxCell>
        <mxCell id="W3kfkjVsVUUDzjyGJnqS-15" value="Vacation Type" style="edgeLabel;html=1;align=center;verticalAlign=middle;resizable=0;points=[];" vertex="1" connectable="0" parent="W3kfkjVsVUUDzjyGJnqS-12">
          <mxGeometry x="-0.0956" y="-2" relative="1" as="geometry">
            <mxPoint as="offset" />
          </mxGeometry>
        </mxCell>
        <mxCell id="W3kfkjVsVUUDzjyGJnqS-24" style="edgeStyle=orthogonalEdgeStyle;rounded=0;orthogonalLoop=1;jettySize=auto;html=1;exitX=0;exitY=0.5;exitDx=0;exitDy=0;entryX=1;entryY=0.25;entryDx=0;entryDy=0;" edge="1" parent="1" source="W3kfkjVsVUUDzjyGJnqS-16" target="W3kfkjVsVUUDzjyGJnqS-20">
          <mxGeometry relative="1" as="geometry">
            <Array as="points">
              <mxPoint x="-120" y="255" />
              <mxPoint x="-120" y="54" />
            </Array>
          </mxGeometry>
        </mxCell>
        <mxCell id="W3kfkjVsVUUDzjyGJnqS-27" value="Vacations" style="edgeLabel;html=1;align=center;verticalAlign=middle;resizable=0;points=[];" vertex="1" connectable="0" parent="W3kfkjVsVUUDzjyGJnqS-24">
          <mxGeometry x="-0.0827" y="-1" relative="1" as="geometry">
            <mxPoint y="21" as="offset" />
          </mxGeometry>
        </mxCell>
        <mxCell id="W3kfkjVsVUUDzjyGJnqS-41" style="edgeStyle=orthogonalEdgeStyle;rounded=0;orthogonalLoop=1;jettySize=auto;html=1;entryX=0.5;entryY=1;entryDx=0;entryDy=0;" edge="1" parent="1" source="W3kfkjVsVUUDzjyGJnqS-16" target="W3kfkjVsVUUDzjyGJnqS-43">
          <mxGeometry relative="1" as="geometry">
            <mxPoint x="-30" y="-192.5" as="targetPoint" />
          </mxGeometry>
        </mxCell>
        <mxCell id="W3kfkjVsVUUDzjyGJnqS-59" style="edgeStyle=orthogonalEdgeStyle;rounded=0;orthogonalLoop=1;jettySize=auto;html=1;exitX=0.5;exitY=1;exitDx=0;exitDy=0;entryX=0;entryY=0.5;entryDx=0;entryDy=0;" edge="1" parent="1" source="W3kfkjVsVUUDzjyGJnqS-16" target="W3kfkjVsVUUDzjyGJnqS-56">
          <mxGeometry relative="1" as="geometry" />
        </mxCell>
        <mxCell id="W3kfkjVsVUUDzjyGJnqS-63" value="Response" style="edgeLabel;html=1;align=center;verticalAlign=middle;resizable=0;points=[];" vertex="1" connectable="0" parent="W3kfkjVsVUUDzjyGJnqS-59">
          <mxGeometry x="0.24" y="-5" relative="1" as="geometry">
            <mxPoint x="-16" y="-5" as="offset" />
          </mxGeometry>
        </mxCell>
        <mxCell id="W3kfkjVsVUUDzjyGJnqS-16" value="DS1&amp;nbsp; &amp;nbsp;Vacations" style="html=1;dashed=0;whitespace=wrap;shape=mxgraph.dfd.dataStoreID;align=left;spacingLeft=3;points=[[0,0],[0.5,0],[1,0],[0,0.5],[1,0.5],[0,1],[0.5,1],[1,1]];fillColor=#1ba1e2;fontColor=#ffffff;strokeColor=#006EAF;" vertex="1" parent="1">
          <mxGeometry x="-80" y="240" width="100" height="30" as="geometry" />
        </mxCell>
        <mxCell id="W3kfkjVsVUUDzjyGJnqS-17" style="edgeStyle=orthogonalEdgeStyle;rounded=0;orthogonalLoop=1;jettySize=auto;html=1;entryX=1;entryY=0.5;entryDx=0;entryDy=0;" edge="1" parent="1" source="W3kfkjVsVUUDzjyGJnqS-9" target="W3kfkjVsVUUDzjyGJnqS-16">
          <mxGeometry relative="1" as="geometry">
            <mxPoint x="-180" y="69" as="targetPoint" />
            <Array as="points" />
          </mxGeometry>
        </mxCell>
        <mxCell id="W3kfkjVsVUUDzjyGJnqS-18" value="Vacation Request Record" style="edgeLabel;html=1;align=center;verticalAlign=middle;resizable=0;points=[];" vertex="1" connectable="0" parent="W3kfkjVsVUUDzjyGJnqS-17">
          <mxGeometry x="-0.1196" y="1" relative="1" as="geometry">
            <mxPoint y="-25" as="offset" />
          </mxGeometry>
        </mxCell>
        <mxCell id="W3kfkjVsVUUDzjyGJnqS-19" value="P 2.1" style="swimlane;childLayout=stackLayout;horizontal=1;startSize=30;horizontalStack=0;rounded=1;fontSize=14;fontStyle=0;strokeWidth=2;resizeParent=0;resizeLast=1;shadow=0;dashed=0;align=center;verticalAlign=middle;fillColor=#cdeb8b;strokeColor=#36393d;" vertex="1" parent="1">
          <mxGeometry x="-338" y="9" width="120" height="90" as="geometry" />
        </mxCell>
        <mxCell id="W3kfkjVsVUUDzjyGJnqS-20" value="Categorize Vacations &#xa;By TypesÂ " style="align=center;strokeColor=none;fillColor=none;spacingLeft=4;fontSize=12;verticalAlign=middle;resizable=0;rotatable=0;part=1;" vertex="1" parent="W3kfkjVsVUUDzjyGJnqS-19">
          <mxGeometry y="30" width="120" height="60" as="geometry" />
        </mxCell>
        <mxCell id="W3kfkjVsVUUDzjyGJnqS-21" value="P 2.2" style="swimlane;childLayout=stackLayout;horizontal=1;startSize=30;horizontalStack=0;rounded=1;fontSize=14;fontStyle=0;strokeWidth=2;resizeParent=0;resizeLast=1;shadow=0;dashed=0;align=center;verticalAlign=middle;fillColor=#cdeb8b;strokeColor=#36393d;" vertex="1" parent="1">
          <mxGeometry x="-550" y="8" width="120" height="90" as="geometry" />
        </mxCell>
        <mxCell id="W3kfkjVsVUUDzjyGJnqS-22" value="Send to HR" style="align=center;strokeColor=none;fillColor=none;spacingLeft=4;fontSize=12;verticalAlign=middle;resizable=0;rotatable=0;part=1;" vertex="1" parent="W3kfkjVsVUUDzjyGJnqS-21">
          <mxGeometry y="30" width="120" height="60" as="geometry" />
        </mxCell>
        <mxCell id="W3kfkjVsVUUDzjyGJnqS-35" style="edgeStyle=orthogonalEdgeStyle;rounded=0;orthogonalLoop=1;jettySize=auto;html=1;entryX=0;entryY=0.5;entryDx=0;entryDy=0;exitX=0;exitY=0;exitDx=70;exitDy=80;exitPerimeter=0;" edge="1" parent="1" source="W3kfkjVsVUUDzjyGJnqS-23" target="W3kfkjVsVUUDzjyGJnqS-32">
          <mxGeometry relative="1" as="geometry" />
        </mxCell>
        <mxCell id="W3kfkjVsVUUDzjyGJnqS-39" value="Request" style="edgeLabel;html=1;align=center;verticalAlign=middle;resizable=0;points=[];" vertex="1" connectable="0" parent="W3kfkjVsVUUDzjyGJnqS-35">
          <mxGeometry x="0.3423" relative="1" as="geometry">
            <mxPoint as="offset" />
          </mxGeometry>
        </mxCell>
        <mxCell id="W3kfkjVsVUUDzjyGJnqS-128" style="edgeStyle=orthogonalEdgeStyle;rounded=0;orthogonalLoop=1;jettySize=auto;html=1;exitX=0;exitY=0;exitDx=0;exitDy=30;exitPerimeter=0;entryX=0.05;entryY=0.022;entryDx=0;entryDy=0;entryPerimeter=0;" edge="1" parent="1" source="W3kfkjVsVUUDzjyGJnqS-23" target="W3kfkjVsVUUDzjyGJnqS-116">
          <mxGeometry relative="1" as="geometry">
            <Array as="points">
              <mxPoint x="-795" y="37" />
            </Array>
          </mxGeometry>
        </mxCell>
        <mxCell id="W3kfkjVsVUUDzjyGJnqS-135" value="Emplyee Info" style="edgeLabel;html=1;align=center;verticalAlign=middle;resizable=0;points=[];" vertex="1" connectable="0" parent="W3kfkjVsVUUDzjyGJnqS-128">
          <mxGeometry x="0.7566" y="3" relative="1" as="geometry">
            <mxPoint as="offset" />
          </mxGeometry>
        </mxCell>
        <mxCell id="W3kfkjVsVUUDzjyGJnqS-23" value="HR Admin&lt;br&gt;EE4" style="shape=cube;whiteSpace=wrap;html=1;boundedLbl=1;backgroundOutline=1;darkOpacity=0.05;darkOpacity2=0.1;fillColor=#fff2cc;strokeColor=#d6b656;" vertex="1" parent="1">
          <mxGeometry x="-775" y="7" width="120" height="80" as="geometry" />
        </mxCell>
        <mxCell id="W3kfkjVsVUUDzjyGJnqS-26" style="edgeStyle=orthogonalEdgeStyle;rounded=0;orthogonalLoop=1;jettySize=auto;html=1;exitX=0;exitY=0.5;exitDx=0;exitDy=0;entryX=1.003;entryY=0.767;entryDx=0;entryDy=0;entryPerimeter=0;" edge="1" parent="1" source="W3kfkjVsVUUDzjyGJnqS-22" target="W3kfkjVsVUUDzjyGJnqS-23">
          <mxGeometry relative="1" as="geometry" />
        </mxCell>
        <mxCell id="W3kfkjVsVUUDzjyGJnqS-30" value="Requests" style="edgeLabel;html=1;align=center;verticalAlign=middle;resizable=0;points=[];" vertex="1" connectable="0" parent="W3kfkjVsVUUDzjyGJnqS-26">
          <mxGeometry x="-0.1429" y="1" relative="1" as="geometry">
            <mxPoint as="offset" />
          </mxGeometry>
        </mxCell>
        <mxCell id="W3kfkjVsVUUDzjyGJnqS-28" style="edgeStyle=orthogonalEdgeStyle;rounded=0;orthogonalLoop=1;jettySize=auto;html=1;entryX=1;entryY=0.5;entryDx=0;entryDy=0;" edge="1" parent="1" source="W3kfkjVsVUUDzjyGJnqS-20" target="W3kfkjVsVUUDzjyGJnqS-22">
          <mxGeometry relative="1" as="geometry" />
        </mxCell>
        <mxCell id="W3kfkjVsVUUDzjyGJnqS-29" value="Vacation &lt;br&gt;Categroies" style="edgeLabel;html=1;align=center;verticalAlign=middle;resizable=0;points=[];" vertex="1" connectable="0" parent="W3kfkjVsVUUDzjyGJnqS-28">
          <mxGeometry x="-0.2212" y="3" relative="1" as="geometry">
            <mxPoint as="offset" />
          </mxGeometry>
        </mxCell>
        <mxCell id="W3kfkjVsVUUDzjyGJnqS-31" value="P4.1" style="swimlane;childLayout=stackLayout;horizontal=1;startSize=30;horizontalStack=0;rounded=1;fontSize=14;fontStyle=0;strokeWidth=2;resizeParent=0;resizeLast=1;shadow=0;dashed=0;align=center;verticalAlign=middle;fillColor=#cce5ff;strokeColor=#36393d;" vertex="1" parent="1">
          <mxGeometry x="-676" y="160" width="120" height="90" as="geometry" />
        </mxCell>
        <mxCell id="W3kfkjVsVUUDzjyGJnqS-32" value="View Documents" style="align=center;strokeColor=none;fillColor=none;spacingLeft=4;fontSize=12;verticalAlign=middle;resizable=0;rotatable=0;part=1;" vertex="1" parent="W3kfkjVsVUUDzjyGJnqS-31">
          <mxGeometry y="30" width="120" height="60" as="geometry" />
        </mxCell>
        <mxCell id="W3kfkjVsVUUDzjyGJnqS-33" value="P4.2" style="swimlane;childLayout=stackLayout;horizontal=1;startSize=30;horizontalStack=0;rounded=1;fontSize=14;fontStyle=0;strokeWidth=2;resizeParent=0;resizeLast=1;shadow=0;dashed=0;align=center;verticalAlign=middle;fillColor=#cce5ff;strokeColor=#36393d;" vertex="1" parent="1">
          <mxGeometry x="-485" y="161" width="120" height="90" as="geometry" />
        </mxCell>
        <mxCell id="W3kfkjVsVUUDzjyGJnqS-34" value="View vacation&#xa;Â balance" style="align=center;strokeColor=none;fillColor=none;spacingLeft=4;fontSize=12;verticalAlign=middle;resizable=0;rotatable=0;part=1;" vertex="1" parent="W3kfkjVsVUUDzjyGJnqS-33">
          <mxGeometry y="30" width="120" height="60" as="geometry" />
        </mxCell>
        <mxCell id="W3kfkjVsVUUDzjyGJnqS-36" style="edgeStyle=orthogonalEdgeStyle;rounded=0;orthogonalLoop=1;jettySize=auto;html=1;entryX=0;entryY=0.5;entryDx=0;entryDy=0;" edge="1" parent="1" source="W3kfkjVsVUUDzjyGJnqS-32" target="W3kfkjVsVUUDzjyGJnqS-34">
          <mxGeometry relative="1" as="geometry">
            <Array as="points">
              <mxPoint x="-510" y="220" />
            </Array>
          </mxGeometry>
        </mxCell>
        <mxCell id="W3kfkjVsVUUDzjyGJnqS-42" value="P 3" style="swimlane;childLayout=stackLayout;horizontal=1;startSize=30;horizontalStack=0;rounded=1;fontSize=14;fontStyle=0;strokeWidth=2;resizeParent=0;resizeLast=1;shadow=0;dashed=0;align=center;verticalAlign=middle;fillColor=#ffff88;strokeColor=#36393d;" vertex="1" parent="1">
          <mxGeometry x="-90" y="-280" width="120" height="90" as="geometry" />
        </mxCell>
        <mxCell id="W3kfkjVsVUUDzjyGJnqS-43" value="Send Vacation History" style="align=center;strokeColor=none;fillColor=none;spacingLeft=4;fontSize=12;verticalAlign=middle;resizable=0;rotatable=0;part=1;" vertex="1" parent="W3kfkjVsVUUDzjyGJnqS-42">
          <mxGeometry y="30" width="120" height="60" as="geometry" />
        </mxCell>
        <mxCell id="W3kfkjVsVUUDzjyGJnqS-44" style="edgeStyle=orthogonalEdgeStyle;rounded=0;orthogonalLoop=1;jettySize=auto;html=1;entryX=0;entryY=0;entryDx=50;entryDy=0;entryPerimeter=0;" edge="1" parent="1" source="W3kfkjVsVUUDzjyGJnqS-43" target="W3kfkjVsVUUDzjyGJnqS-1">
          <mxGeometry relative="1" as="geometry">
            <mxPoint x="430" y="-190" as="targetPoint" />
          </mxGeometry>
        </mxCell>
        <mxCell id="W3kfkjVsVUUDzjyGJnqS-46" value="Vacation History" style="edgeLabel;html=1;align=center;verticalAlign=middle;resizable=0;points=[];" vertex="1" connectable="0" parent="W3kfkjVsVUUDzjyGJnqS-44">
          <mxGeometry x="-0.8101" y="-1" relative="1" as="geometry">
            <mxPoint x="288" y="-1" as="offset" />
          </mxGeometry>
        </mxCell>
        <mxCell id="W3kfkjVsVUUDzjyGJnqS-45" style="edgeStyle=orthogonalEdgeStyle;rounded=0;orthogonalLoop=1;jettySize=auto;html=1;entryX=0;entryY=0;entryDx=50;entryDy=0;entryPerimeter=0;" edge="1" parent="1" source="W3kfkjVsVUUDzjyGJnqS-43" target="W3kfkjVsVUUDzjyGJnqS-23">
          <mxGeometry relative="1" as="geometry">
            <mxPoint x="-700" y="-200" as="targetPoint" />
          </mxGeometry>
        </mxCell>
        <mxCell id="W3kfkjVsVUUDzjyGJnqS-47" value="Vacation History" style="edgeLabel;html=1;align=center;verticalAlign=middle;resizable=0;points=[];" vertex="1" connectable="0" parent="1">
          <mxGeometry x="-390" y="-220" as="geometry" />
        </mxCell>
        <mxCell id="W3kfkjVsVUUDzjyGJnqS-48" value="P4.3" style="swimlane;childLayout=stackLayout;horizontal=1;startSize=30;horizontalStack=0;rounded=1;fontSize=14;fontStyle=0;strokeWidth=2;resizeParent=0;resizeLast=1;shadow=0;dashed=0;align=center;verticalAlign=middle;fillColor=#cce5ff;strokeColor=#36393d;" vertex="1" parent="1">
          <mxGeometry x="-300" y="161" width="120" height="90" as="geometry" />
        </mxCell>
        <mxCell id="W3kfkjVsVUUDzjyGJnqS-49" value="Accept or Reject&#xa;Â Request" style="align=center;strokeColor=none;fillColor=none;spacingLeft=4;fontSize=12;verticalAlign=middle;resizable=0;rotatable=0;part=1;" vertex="1" parent="W3kfkjVsVUUDzjyGJnqS-48">
          <mxGeometry y="30" width="120" height="60" as="geometry" />
        </mxCell>
        <mxCell id="W3kfkjVsVUUDzjyGJnqS-50" style="edgeStyle=orthogonalEdgeStyle;rounded=0;orthogonalLoop=1;jettySize=auto;html=1;entryX=0;entryY=0.5;entryDx=0;entryDy=0;" edge="1" parent="1" source="W3kfkjVsVUUDzjyGJnqS-34" target="W3kfkjVsVUUDzjyGJnqS-49">
          <mxGeometry relative="1" as="geometry" />
        </mxCell>
        <mxCell id="W3kfkjVsVUUDzjyGJnqS-53" style="edgeStyle=orthogonalEdgeStyle;rounded=0;orthogonalLoop=1;jettySize=auto;html=1;entryX=0.5;entryY=1;entryDx=0;entryDy=0;" edge="1" parent="1" source="W3kfkjVsVUUDzjyGJnqS-49" target="W3kfkjVsVUUDzjyGJnqS-16">
          <mxGeometry relative="1" as="geometry">
            <Array as="points">
              <mxPoint x="-240" y="290" />
              <mxPoint x="-30" y="290" />
            </Array>
          </mxGeometry>
        </mxCell>
        <mxCell id="W3kfkjVsVUUDzjyGJnqS-54" value="Response" style="edgeLabel;html=1;align=center;verticalAlign=middle;resizable=0;points=[];" vertex="1" connectable="0" parent="W3kfkjVsVUUDzjyGJnqS-53">
          <mxGeometry x="-0.0096" relative="1" as="geometry">
            <mxPoint as="offset" />
          </mxGeometry>
        </mxCell>
        <mxCell id="W3kfkjVsVUUDzjyGJnqS-55" value="P5.1" style="swimlane;childLayout=stackLayout;horizontal=1;startSize=30;horizontalStack=0;rounded=1;fontSize=14;fontStyle=0;strokeWidth=2;resizeParent=0;resizeLast=1;shadow=0;dashed=0;align=center;verticalAlign=middle;fillColor=#ffcc99;strokeColor=#36393d;" vertex="1" parent="1">
          <mxGeometry x="250" y="230" width="120" height="90" as="geometry" />
        </mxCell>
        <mxCell id="W3kfkjVsVUUDzjyGJnqS-56" value="Display Response toÂ &#xa;Employees&#39; VacationÂ &#xa;Page" style="align=center;strokeColor=none;fillColor=none;spacingLeft=4;fontSize=12;verticalAlign=middle;resizable=0;rotatable=0;part=1;" vertex="1" parent="W3kfkjVsVUUDzjyGJnqS-55">
          <mxGeometry y="30" width="120" height="60" as="geometry" />
        </mxCell>
        <mxCell id="W3kfkjVsVUUDzjyGJnqS-57" value="P5.2" style="swimlane;childLayout=stackLayout;horizontal=1;startSize=30;horizontalStack=0;rounded=1;fontSize=14;fontStyle=0;strokeWidth=2;resizeParent=0;resizeLast=1;shadow=0;dashed=0;align=center;verticalAlign=middle;fillColor=#ffcc99;strokeColor=#36393d;" vertex="1" parent="1">
          <mxGeometry x="500" y="230" width="120" height="90" as="geometry" />
        </mxCell>
        <mxCell id="W3kfkjVsVUUDzjyGJnqS-58" value="Notify Employee withÂ &#xa;Vacation response" style="align=center;strokeColor=none;fillColor=none;spacingLeft=4;fontSize=12;verticalAlign=middle;resizable=0;rotatable=0;part=1;" vertex="1" parent="W3kfkjVsVUUDzjyGJnqS-57">
          <mxGeometry y="30" width="120" height="60" as="geometry" />
        </mxCell>
        <mxCell id="W3kfkjVsVUUDzjyGJnqS-61" style="edgeStyle=orthogonalEdgeStyle;rounded=0;orthogonalLoop=1;jettySize=auto;html=1;entryX=0;entryY=0.5;entryDx=0;entryDy=0;" edge="1" parent="1" source="W3kfkjVsVUUDzjyGJnqS-56" target="W3kfkjVsVUUDzjyGJnqS-58">
          <mxGeometry relative="1" as="geometry" />
        </mxCell>
        <mxCell id="W3kfkjVsVUUDzjyGJnqS-62" style="edgeStyle=orthogonalEdgeStyle;rounded=0;orthogonalLoop=1;jettySize=auto;html=1;entryX=0;entryY=0;entryDx=70;entryDy=80;entryPerimeter=0;" edge="1" parent="1" source="W3kfkjVsVUUDzjyGJnqS-58" target="W3kfkjVsVUUDzjyGJnqS-1">
          <mxGeometry relative="1" as="geometry" />
        </mxCell>
        <mxCell id="W3kfkjVsVUUDzjyGJnqS-64" value="Response" style="edgeLabel;html=1;align=center;verticalAlign=middle;resizable=0;points=[];" vertex="1" connectable="0" parent="W3kfkjVsVUUDzjyGJnqS-62">
          <mxGeometry x="-0.391" y="1" relative="1" as="geometry">
            <mxPoint x="-24" as="offset" />
          </mxGeometry>
        </mxCell>
        <mxCell id="W3kfkjVsVUUDzjyGJnqS-68" style="edgeStyle=orthogonalEdgeStyle;rounded=0;orthogonalLoop=1;jettySize=auto;html=1;exitX=-0.008;exitY=0.571;exitDx=0;exitDy=0;exitPerimeter=0;entryX=1;entryY=0.5;entryDx=0;entryDy=0;" edge="1" parent="1" source="W3kfkjVsVUUDzjyGJnqS-65" target="W3kfkjVsVUUDzjyGJnqS-67">
          <mxGeometry relative="1" as="geometry" />
        </mxCell>
        <mxCell id="W3kfkjVsVUUDzjyGJnqS-76" value="Project Details" style="edgeLabel;html=1;align=center;verticalAlign=middle;resizable=0;points=[];" vertex="1" connectable="0" parent="W3kfkjVsVUUDzjyGJnqS-68">
          <mxGeometry x="-0.1949" y="3" relative="1" as="geometry">
            <mxPoint x="-9" y="-3" as="offset" />
          </mxGeometry>
        </mxCell>
        <mxCell id="W3kfkjVsVUUDzjyGJnqS-65" value="Project Manager&lt;br&gt;EE2" style="shape=cube;whiteSpace=wrap;html=1;boundedLbl=1;backgroundOutline=1;darkOpacity=0.05;darkOpacity2=0.1;fillColor=#fff2cc;strokeColor=#d6b656;" vertex="1" parent="1">
          <mxGeometry x="720" y="718" width="120" height="80" as="geometry" />
        </mxCell>
        <mxCell id="W3kfkjVsVUUDzjyGJnqS-66" value="P6.1" style="swimlane;childLayout=stackLayout;horizontal=1;startSize=30;horizontalStack=0;rounded=1;fontSize=14;fontStyle=0;strokeWidth=2;resizeParent=0;resizeLast=1;shadow=0;dashed=0;align=center;verticalAlign=middle;fillColor=#b0e3e6;strokeColor=#0e8088;" vertex="1" parent="1">
          <mxGeometry x="506" y="699" width="120" height="90" as="geometry" />
        </mxCell>
        <mxCell id="W3kfkjVsVUUDzjyGJnqS-67" value="Set Project Details" style="align=center;strokeColor=none;fillColor=none;spacingLeft=4;fontSize=12;verticalAlign=middle;resizable=0;rotatable=0;part=1;" vertex="1" parent="W3kfkjVsVUUDzjyGJnqS-66">
          <mxGeometry y="30" width="120" height="60" as="geometry" />
        </mxCell>
        <mxCell id="W3kfkjVsVUUDzjyGJnqS-70" value="P6.2" style="swimlane;childLayout=stackLayout;horizontal=1;startSize=30;horizontalStack=0;rounded=1;fontSize=14;fontStyle=0;strokeWidth=2;resizeParent=0;resizeLast=1;shadow=0;dashed=0;align=center;verticalAlign=middle;fillColor=#b0e3e6;strokeColor=#0e8088;" vertex="1" parent="1">
          <mxGeometry x="250" y="699" width="120" height="90" as="geometry" />
        </mxCell>
        <mxCell id="W3kfkjVsVUUDzjyGJnqS-71" value="Add Teammates" style="align=center;strokeColor=none;fillColor=none;spacingLeft=4;fontSize=12;verticalAlign=middle;resizable=0;rotatable=0;part=1;" vertex="1" parent="W3kfkjVsVUUDzjyGJnqS-70">
          <mxGeometry y="30" width="120" height="60" as="geometry" />
        </mxCell>
        <mxCell id="W3kfkjVsVUUDzjyGJnqS-72" style="edgeStyle=orthogonalEdgeStyle;rounded=0;orthogonalLoop=1;jettySize=auto;html=1;entryX=1;entryY=0.5;entryDx=0;entryDy=0;" edge="1" parent="1" source="W3kfkjVsVUUDzjyGJnqS-67" target="W3kfkjVsVUUDzjyGJnqS-71">
          <mxGeometry relative="1" as="geometry" />
        </mxCell>
        <mxCell id="W3kfkjVsVUUDzjyGJnqS-83" style="edgeStyle=orthogonalEdgeStyle;rounded=0;orthogonalLoop=1;jettySize=auto;html=1;entryX=0;entryY=0.5;entryDx=0;entryDy=0;" edge="1" parent="1" source="W3kfkjVsVUUDzjyGJnqS-73" target="W3kfkjVsVUUDzjyGJnqS-80">
          <mxGeometry relative="1" as="geometry">
            <Array as="points">
              <mxPoint x="-30" y="594" />
            </Array>
          </mxGeometry>
        </mxCell>
        <mxCell id="W3kfkjVsVUUDzjyGJnqS-86" value="Project" style="edgeLabel;html=1;align=center;verticalAlign=middle;resizable=0;points=[];" vertex="1" connectable="0" parent="W3kfkjVsVUUDzjyGJnqS-83">
          <mxGeometry x="0.125" relative="1" as="geometry">
            <mxPoint as="offset" />
          </mxGeometry>
        </mxCell>
        <mxCell id="W3kfkjVsVUUDzjyGJnqS-73" value="DS2&amp;nbsp; &amp;nbsp;Projects" style="html=1;dashed=0;whitespace=wrap;shape=mxgraph.dfd.dataStoreID;align=left;spacingLeft=3;points=[[0,0],[0.5,0],[1,0],[0,0.5],[1,0.5],[0,1],[0.5,1],[1,1]];fillColor=#1ba1e2;fontColor=#ffffff;strokeColor=#006EAF;" vertex="1" parent="1">
          <mxGeometry x="-80" y="679" width="100" height="30" as="geometry" />
        </mxCell>
        <mxCell id="W3kfkjVsVUUDzjyGJnqS-75" style="edgeStyle=orthogonalEdgeStyle;rounded=0;orthogonalLoop=1;jettySize=auto;html=1;entryX=0.5;entryY=1;entryDx=0;entryDy=0;" edge="1" parent="1" source="W3kfkjVsVUUDzjyGJnqS-71" target="W3kfkjVsVUUDzjyGJnqS-73">
          <mxGeometry relative="1" as="geometry" />
        </mxCell>
        <mxCell id="W3kfkjVsVUUDzjyGJnqS-78" value="Project" style="edgeLabel;html=1;align=center;verticalAlign=middle;resizable=0;points=[];" vertex="1" connectable="0" parent="W3kfkjVsVUUDzjyGJnqS-75">
          <mxGeometry x="-0.1184" y="-1" relative="1" as="geometry">
            <mxPoint as="offset" />
          </mxGeometry>
        </mxCell>
        <mxCell id="W3kfkjVsVUUDzjyGJnqS-77" value="Teammates" style="edgeLabel;html=1;align=center;verticalAlign=middle;resizable=0;points=[];" vertex="1" connectable="0" parent="1">
          <mxGeometry x="450.0025164706076" y="758.7233052115332" as="geometry">
            <mxPoint x="-5" y="-1" as="offset" />
          </mxGeometry>
        </mxCell>
        <mxCell id="W3kfkjVsVUUDzjyGJnqS-79" value="P7.1" style="swimlane;childLayout=stackLayout;horizontal=1;startSize=30;horizontalStack=0;rounded=1;fontSize=14;fontStyle=0;strokeWidth=2;resizeParent=0;resizeLast=1;shadow=0;dashed=0;align=center;verticalAlign=middle;fillColor=#d0cee2;strokeColor=#56517e;" vertex="1" parent="1">
          <mxGeometry x="250" y="534" width="120" height="90" as="geometry" />
        </mxCell>
        <mxCell id="W3kfkjVsVUUDzjyGJnqS-80" value="Display Project to&#xa;Employees&#39; Project&#xa;Page" style="align=center;strokeColor=none;fillColor=none;spacingLeft=4;fontSize=12;verticalAlign=middle;resizable=0;rotatable=0;part=1;" vertex="1" parent="W3kfkjVsVUUDzjyGJnqS-79">
          <mxGeometry y="30" width="120" height="60" as="geometry" />
        </mxCell>
        <mxCell id="W3kfkjVsVUUDzjyGJnqS-81" value="P7.2" style="swimlane;childLayout=stackLayout;horizontal=1;startSize=30;horizontalStack=0;rounded=1;fontSize=14;fontStyle=0;strokeWidth=2;resizeParent=0;resizeLast=1;shadow=0;dashed=0;align=center;verticalAlign=middle;fillColor=#d0cee2;strokeColor=#56517e;" vertex="1" parent="1">
          <mxGeometry x="500" y="534" width="120" height="90" as="geometry" />
        </mxCell>
        <mxCell id="W3kfkjVsVUUDzjyGJnqS-82" value="Notify Teammates&#xa;With Project" style="align=center;strokeColor=none;fillColor=none;spacingLeft=4;fontSize=12;verticalAlign=middle;resizable=0;rotatable=0;part=1;" vertex="1" parent="W3kfkjVsVUUDzjyGJnqS-81">
          <mxGeometry y="30" width="120" height="60" as="geometry" />
        </mxCell>
        <mxCell id="W3kfkjVsVUUDzjyGJnqS-84" style="edgeStyle=orthogonalEdgeStyle;rounded=0;orthogonalLoop=1;jettySize=auto;html=1;entryX=0;entryY=0.5;entryDx=0;entryDy=0;" edge="1" parent="1" source="W3kfkjVsVUUDzjyGJnqS-80" target="W3kfkjVsVUUDzjyGJnqS-82">
          <mxGeometry relative="1" as="geometry" />
        </mxCell>
        <mxCell id="W3kfkjVsVUUDzjyGJnqS-85" style="edgeStyle=orthogonalEdgeStyle;rounded=0;orthogonalLoop=1;jettySize=auto;html=1;entryX=0;entryY=0;entryDx=70;entryDy=80;entryPerimeter=0;" edge="1" parent="1" source="W3kfkjVsVUUDzjyGJnqS-82" target="W3kfkjVsVUUDzjyGJnqS-1">
          <mxGeometry relative="1" as="geometry" />
        </mxCell>
        <mxCell id="W3kfkjVsVUUDzjyGJnqS-87" value="Project" style="edgeLabel;html=1;align=center;verticalAlign=middle;resizable=0;points=[];" vertex="1" connectable="0" parent="W3kfkjVsVUUDzjyGJnqS-85">
          <mxGeometry x="-0.6435" y="2" relative="1" as="geometry">
            <mxPoint as="offset" />
          </mxGeometry>
        </mxCell>
        <mxCell id="W3kfkjVsVUUDzjyGJnqS-88" value="P8.1" style="swimlane;childLayout=stackLayout;horizontal=1;startSize=30;horizontalStack=0;rounded=1;fontSize=14;fontStyle=0;strokeWidth=2;resizeParent=0;resizeLast=1;shadow=0;dashed=0;align=center;verticalAlign=middle;fillColor=#e3c800;strokeColor=#B09500;fontColor=#000000;" vertex="1" parent="1">
          <mxGeometry x="500" y="370" width="120" height="90" as="geometry" />
        </mxCell>
        <mxCell id="W3kfkjVsVUUDzjyGJnqS-89" value="Start Tracker" style="align=center;strokeColor=none;fillColor=none;spacingLeft=4;fontSize=12;verticalAlign=middle;resizable=0;rotatable=0;part=1;" vertex="1" parent="W3kfkjVsVUUDzjyGJnqS-88">
          <mxGeometry y="30" width="120" height="60" as="geometry" />
        </mxCell>
        <mxCell id="W3kfkjVsVUUDzjyGJnqS-90" value="P8.2" style="swimlane;childLayout=stackLayout;horizontal=1;startSize=30;horizontalStack=0;rounded=1;fontSize=14;fontStyle=0;strokeWidth=2;resizeParent=0;resizeLast=1;shadow=0;dashed=0;align=center;verticalAlign=middle;fillColor=#e3c800;fontColor=#000000;strokeColor=#B09500;" vertex="1" parent="1">
          <mxGeometry x="250" y="370" width="120" height="90" as="geometry" />
        </mxCell>
        <mxCell id="W3kfkjVsVUUDzjyGJnqS-91" value="Stop Tracker" style="align=center;strokeColor=none;fillColor=none;spacingLeft=4;fontSize=12;verticalAlign=middle;resizable=0;rotatable=0;part=1;" vertex="1" parent="W3kfkjVsVUUDzjyGJnqS-90">
          <mxGeometry y="30" width="120" height="60" as="geometry" />
        </mxCell>
        <mxCell id="W3kfkjVsVUUDzjyGJnqS-92" value="P8.3" style="swimlane;childLayout=stackLayout;horizontal=1;startSize=30;horizontalStack=0;rounded=1;fontSize=14;fontStyle=0;strokeWidth=2;resizeParent=0;resizeLast=1;shadow=0;dashed=0;align=center;verticalAlign=middle;fillColor=#e3c800;fontColor=#000000;strokeColor=#B09500;" vertex="1" parent="1">
          <mxGeometry y="370" width="120" height="90" as="geometry" />
        </mxCell>
        <mxCell id="W3kfkjVsVUUDzjyGJnqS-93" value="SaveÂ &#xa;Tracking Session" style="align=center;strokeColor=none;fillColor=none;spacingLeft=4;fontSize=12;verticalAlign=middle;resizable=0;rotatable=0;part=1;" vertex="1" parent="W3kfkjVsVUUDzjyGJnqS-92">
          <mxGeometry y="30" width="120" height="60" as="geometry" />
        </mxCell>
        <mxCell id="W3kfkjVsVUUDzjyGJnqS-109" style="edgeStyle=orthogonalEdgeStyle;rounded=0;orthogonalLoop=1;jettySize=auto;html=1;entryX=0.5;entryY=1;entryDx=0;entryDy=0;" edge="1" parent="1" source="W3kfkjVsVUUDzjyGJnqS-94" target="W3kfkjVsVUUDzjyGJnqS-106">
          <mxGeometry relative="1" as="geometry" />
        </mxCell>
        <mxCell id="W3kfkjVsVUUDzjyGJnqS-112" value="Work Hours Reports" style="edgeLabel;html=1;align=center;verticalAlign=middle;resizable=0;points=[];" vertex="1" connectable="0" parent="W3kfkjVsVUUDzjyGJnqS-109">
          <mxGeometry x="-0.2195" y="1" relative="1" as="geometry">
            <mxPoint as="offset" />
          </mxGeometry>
        </mxCell>
        <mxCell id="W3kfkjVsVUUDzjyGJnqS-94" value="DS3&amp;nbsp; Work Hours" style="html=1;dashed=0;whitespace=wrap;shape=mxgraph.dfd.dataStoreID;align=left;spacingLeft=3;points=[[0,0],[0.5,0],[1,0],[0,0.5],[1,0.5],[0,1],[0.5,1],[1,1]];fillColor=#1ba1e2;fontColor=#ffffff;strokeColor=#006EAF;" vertex="1" parent="1">
          <mxGeometry x="-80" y="526" width="100" height="30" as="geometry" />
        </mxCell>
        <mxCell id="W3kfkjVsVUUDzjyGJnqS-99" style="edgeStyle=orthogonalEdgeStyle;rounded=0;orthogonalLoop=1;jettySize=auto;html=1;entryX=1;entryY=0.5;entryDx=0;entryDy=0;" edge="1" parent="1" source="W3kfkjVsVUUDzjyGJnqS-89" target="W3kfkjVsVUUDzjyGJnqS-91">
          <mxGeometry relative="1" as="geometry" />
        </mxCell>
        <mxCell id="W3kfkjVsVUUDzjyGJnqS-100" value="Stop Time" style="edgeLabel;html=1;align=center;verticalAlign=middle;resizable=0;points=[];" vertex="1" connectable="0" parent="W3kfkjVsVUUDzjyGJnqS-99">
          <mxGeometry x="-0.2142" y="3" relative="1" as="geometry">
            <mxPoint x="-12" y="-3" as="offset" />
          </mxGeometry>
        </mxCell>
        <mxCell id="W3kfkjVsVUUDzjyGJnqS-101" style="edgeStyle=orthogonalEdgeStyle;rounded=0;orthogonalLoop=1;jettySize=auto;html=1;entryX=1;entryY=0.5;entryDx=0;entryDy=0;" edge="1" parent="1" source="W3kfkjVsVUUDzjyGJnqS-91" target="W3kfkjVsVUUDzjyGJnqS-93">
          <mxGeometry relative="1" as="geometry" />
        </mxCell>
        <mxCell id="W3kfkjVsVUUDzjyGJnqS-102" value="Worked Hours" style="edgeLabel;html=1;align=center;verticalAlign=middle;resizable=0;points=[];" vertex="1" connectable="0" parent="1">
          <mxGeometry x="190.00076923076927" y="430.0000000000002" as="geometry" />
        </mxCell>
        <mxCell id="W3kfkjVsVUUDzjyGJnqS-103" style="edgeStyle=orthogonalEdgeStyle;rounded=0;orthogonalLoop=1;jettySize=auto;html=1;entryX=0.5;entryY=0;entryDx=0;entryDy=0;" edge="1" parent="1" source="W3kfkjVsVUUDzjyGJnqS-93" target="W3kfkjVsVUUDzjyGJnqS-94">
          <mxGeometry relative="1" as="geometry">
            <Array as="points">
              <mxPoint x="-30" y="430" />
            </Array>
          </mxGeometry>
        </mxCell>
        <mxCell id="W3kfkjVsVUUDzjyGJnqS-104" value="Worked Hours" style="edgeLabel;html=1;align=center;verticalAlign=middle;resizable=0;points=[];" vertex="1" connectable="0" parent="1">
          <mxGeometry x="-29.999230769230735" y="480.0000000000002" as="geometry" />
        </mxCell>
        <mxCell id="W3kfkjVsVUUDzjyGJnqS-105" value="P9.1" style="swimlane;childLayout=stackLayout;horizontal=1;startSize=30;horizontalStack=0;rounded=1;fontSize=14;fontStyle=0;strokeWidth=2;resizeParent=0;resizeLast=1;shadow=0;dashed=0;align=center;verticalAlign=middle;fillColor=#a0522d;fontColor=#ffffff;strokeColor=#6D1F00;" vertex="1" parent="1">
          <mxGeometry x="-485" y="310" width="120" height="90" as="geometry" />
        </mxCell>
        <mxCell id="W3kfkjVsVUUDzjyGJnqS-106" value="Categorize&#xa;Â Work-Hours&#xa;(Normal/Overtime)" style="align=center;strokeColor=none;fillColor=none;spacingLeft=4;fontSize=12;verticalAlign=middle;resizable=0;rotatable=0;part=1;" vertex="1" parent="W3kfkjVsVUUDzjyGJnqS-105">
          <mxGeometry y="30" width="120" height="60" as="geometry" />
        </mxCell>
        <mxCell id="W3kfkjVsVUUDzjyGJnqS-111" style="edgeStyle=orthogonalEdgeStyle;rounded=0;orthogonalLoop=1;jettySize=auto;html=1;entryX=0.289;entryY=1;entryDx=0;entryDy=0;entryPerimeter=0;" edge="1" parent="1" source="W3kfkjVsVUUDzjyGJnqS-107" target="W3kfkjVsVUUDzjyGJnqS-23">
          <mxGeometry relative="1" as="geometry">
            <Array as="points">
              <mxPoint x="-740" y="355" />
            </Array>
          </mxGeometry>
        </mxCell>
        <mxCell id="W3kfkjVsVUUDzjyGJnqS-107" value="P9.2" style="swimlane;childLayout=stackLayout;horizontal=1;startSize=30;horizontalStack=0;rounded=1;fontSize=14;fontStyle=0;strokeWidth=2;resizeParent=0;resizeLast=1;shadow=0;dashed=0;align=center;verticalAlign=middle;fillColor=#a0522d;fontColor=#ffffff;strokeColor=#6D1F00;" vertex="1" parent="1">
          <mxGeometry x="-676" y="310" width="120" height="90" as="geometry" />
        </mxCell>
        <mxCell id="W3kfkjVsVUUDzjyGJnqS-108" value="View Documents" style="align=center;strokeColor=none;fillColor=none;spacingLeft=4;fontSize=12;verticalAlign=middle;resizable=0;rotatable=0;part=1;" vertex="1" parent="W3kfkjVsVUUDzjyGJnqS-107">
          <mxGeometry y="30" width="120" height="60" as="geometry" />
        </mxCell>
        <mxCell id="W3kfkjVsVUUDzjyGJnqS-110" style="edgeStyle=orthogonalEdgeStyle;rounded=0;orthogonalLoop=1;jettySize=auto;html=1;entryX=1;entryY=0.5;entryDx=0;entryDy=0;" edge="1" parent="1" source="W3kfkjVsVUUDzjyGJnqS-106" target="W3kfkjVsVUUDzjyGJnqS-108">
          <mxGeometry relative="1" as="geometry" />
        </mxCell>
        <mxCell id="W3kfkjVsVUUDzjyGJnqS-113" value="Work&lt;br&gt;Hours&lt;br&gt;Categories" style="edgeLabel;html=1;align=center;verticalAlign=middle;resizable=0;points=[];" vertex="1" connectable="0" parent="W3kfkjVsVUUDzjyGJnqS-110">
          <mxGeometry x="-0.2299" relative="1" as="geometry">
            <mxPoint x="-228" y="-60" as="offset" />
          </mxGeometry>
        </mxCell>
        <mxCell id="W3kfkjVsVUUDzjyGJnqS-115" value="HR Admin&lt;br&gt;EE4" style="shape=cube;whiteSpace=wrap;html=1;boundedLbl=1;backgroundOutline=1;darkOpacity=0.05;darkOpacity2=0.1;fillColor=#fff2cc;strokeColor=#d6b656;" vertex="1" parent="1">
          <mxGeometry x="-775" y="718" width="120" height="80" as="geometry" />
        </mxCell>
        <mxCell id="W3kfkjVsVUUDzjyGJnqS-116" value="P10.1" style="swimlane;childLayout=stackLayout;horizontal=1;startSize=30;horizontalStack=0;rounded=1;fontSize=14;fontStyle=0;strokeWidth=2;resizeParent=0;resizeLast=1;shadow=0;dashed=0;align=center;verticalAlign=middle;fillColor=#d80073;fontColor=#ffffff;strokeColor=#A50040;" vertex="1" parent="1">
          <mxGeometry x="-801" y="444" width="120" height="90" as="geometry" />
        </mxCell>
        <mxCell id="W3kfkjVsVUUDzjyGJnqS-117" value="Add Basic Info" style="align=center;strokeColor=none;fillColor=none;spacingLeft=4;fontSize=12;verticalAlign=middle;resizable=0;rotatable=0;part=1;" vertex="1" parent="W3kfkjVsVUUDzjyGJnqS-116">
          <mxGeometry y="30" width="120" height="60" as="geometry" />
        </mxCell>
        <mxCell id="W3kfkjVsVUUDzjyGJnqS-118" value="P10.2" style="swimlane;childLayout=stackLayout;horizontal=1;startSize=30;horizontalStack=0;rounded=1;fontSize=14;fontStyle=0;strokeWidth=2;resizeParent=0;resizeLast=1;shadow=0;dashed=0;align=center;verticalAlign=middle;fillColor=#d80073;fontColor=#ffffff;strokeColor=#A50040;" vertex="1" parent="1">
          <mxGeometry x="-800" y="561" width="120" height="90" as="geometry" />
        </mxCell>
        <mxCell id="W3kfkjVsVUUDzjyGJnqS-119" value="Assign Role" style="align=center;strokeColor=none;fillColor=none;spacingLeft=4;fontSize=12;verticalAlign=middle;resizable=0;rotatable=0;part=1;" vertex="1" parent="W3kfkjVsVUUDzjyGJnqS-118">
          <mxGeometry y="30" width="120" height="60" as="geometry" />
        </mxCell>
        <mxCell id="W3kfkjVsVUUDzjyGJnqS-120" value="P10.3" style="swimlane;childLayout=stackLayout;horizontal=1;startSize=30;horizontalStack=0;rounded=1;fontSize=14;fontStyle=0;strokeWidth=2;resizeParent=0;resizeLast=1;shadow=0;dashed=0;align=center;verticalAlign=middle;fillColor=#d80073;fontColor=#ffffff;strokeColor=#A50040;" vertex="1" parent="1">
          <mxGeometry x="-601" y="561" width="120" height="90" as="geometry" />
        </mxCell>
        <mxCell id="W3kfkjVsVUUDzjyGJnqS-121" value="Define Work Hours" style="align=center;strokeColor=none;fillColor=none;spacingLeft=4;fontSize=12;verticalAlign=middle;resizable=0;rotatable=0;part=1;" vertex="1" parent="W3kfkjVsVUUDzjyGJnqS-120">
          <mxGeometry y="30" width="120" height="60" as="geometry" />
        </mxCell>
        <mxCell id="W3kfkjVsVUUDzjyGJnqS-122" value="P10.4" style="swimlane;childLayout=stackLayout;horizontal=1;startSize=30;horizontalStack=0;rounded=1;fontSize=14;fontStyle=0;strokeWidth=2;resizeParent=0;resizeLast=1;shadow=0;dashed=0;align=center;verticalAlign=middle;fillColor=#d80073;fontColor=#ffffff;strokeColor=#A50040;" vertex="1" parent="1">
          <mxGeometry x="-399" y="561" width="120" height="90" as="geometry" />
        </mxCell>
        <mxCell id="W3kfkjVsVUUDzjyGJnqS-123" value="Define Pay" style="align=center;strokeColor=none;fillColor=none;spacingLeft=4;fontSize=12;verticalAlign=middle;resizable=0;rotatable=0;part=1;" vertex="1" parent="W3kfkjVsVUUDzjyGJnqS-122">
          <mxGeometry y="30" width="120" height="60" as="geometry" />
        </mxCell>
        <mxCell id="W3kfkjVsVUUDzjyGJnqS-124" value="P10.5" style="swimlane;childLayout=stackLayout;horizontal=1;startSize=30;horizontalStack=0;rounded=1;fontSize=14;fontStyle=0;strokeWidth=2;resizeParent=0;resizeLast=1;shadow=0;dashed=0;align=center;verticalAlign=middle;fillColor=#d80073;fontColor=#ffffff;strokeColor=#A50040;" vertex="1" parent="1">
          <mxGeometry x="-198" y="559" width="120" height="90" as="geometry" />
        </mxCell>
        <mxCell id="W3kfkjVsVUUDzjyGJnqS-125" value="Publish Account" style="align=center;strokeColor=none;fillColor=none;spacingLeft=4;fontSize=12;verticalAlign=middle;resizable=0;rotatable=0;part=1;" vertex="1" parent="W3kfkjVsVUUDzjyGJnqS-124">
          <mxGeometry y="30" width="120" height="60" as="geometry" />
        </mxCell>
        <mxCell id="W3kfkjVsVUUDzjyGJnqS-138" style="edgeStyle=orthogonalEdgeStyle;rounded=0;orthogonalLoop=1;jettySize=auto;html=1;entryX=1;entryY=0.5;entryDx=0;entryDy=0;exitX=-0.005;exitY=0.808;exitDx=0;exitDy=0;exitPerimeter=0;" edge="1" parent="1" source="W3kfkjVsVUUDzjyGJnqS-127" target="W3kfkjVsVUUDzjyGJnqS-137">
          <mxGeometry relative="1" as="geometry">
            <mxPoint x="-310" y="830" as="targetPoint" />
          </mxGeometry>
        </mxCell>
        <mxCell id="W3kfkjVsVUUDzjyGJnqS-140" value="Employee Info" style="edgeLabel;html=1;align=center;verticalAlign=middle;resizable=0;points=[];" vertex="1" connectable="0" parent="W3kfkjVsVUUDzjyGJnqS-138">
          <mxGeometry x="0.3369" y="-1" relative="1" as="geometry">
            <mxPoint as="offset" />
          </mxGeometry>
        </mxCell>
        <mxCell id="W3kfkjVsVUUDzjyGJnqS-127" value="DS4&amp;nbsp; Employees" style="html=1;dashed=0;whitespace=wrap;shape=mxgraph.dfd.dataStoreID;align=left;spacingLeft=3;points=[[0,0],[0.5,0],[1,0],[0,0.5],[1,0.5],[0,1],[0.5,1],[1,1]];fillColor=#1ba1e2;fontColor=#ffffff;strokeColor=#006EAF;" vertex="1" parent="1">
          <mxGeometry x="-80" y="798" width="100" height="30" as="geometry" />
        </mxCell>
        <mxCell id="W3kfkjVsVUUDzjyGJnqS-130" style="edgeStyle=orthogonalEdgeStyle;rounded=0;orthogonalLoop=1;jettySize=auto;html=1;entryX=0.5;entryY=0;entryDx=0;entryDy=0;" edge="1" parent="1" source="W3kfkjVsVUUDzjyGJnqS-117" target="W3kfkjVsVUUDzjyGJnqS-118">
          <mxGeometry relative="1" as="geometry" />
        </mxCell>
        <mxCell id="W3kfkjVsVUUDzjyGJnqS-131" style="edgeStyle=orthogonalEdgeStyle;rounded=0;orthogonalLoop=1;jettySize=auto;html=1;entryX=0;entryY=0.5;entryDx=0;entryDy=0;" edge="1" parent="1" source="W3kfkjVsVUUDzjyGJnqS-119" target="W3kfkjVsVUUDzjyGJnqS-121">
          <mxGeometry relative="1" as="geometry" />
        </mxCell>
        <mxCell id="W3kfkjVsVUUDzjyGJnqS-132" style="edgeStyle=orthogonalEdgeStyle;rounded=0;orthogonalLoop=1;jettySize=auto;html=1;exitX=1;exitY=0.5;exitDx=0;exitDy=0;entryX=0;entryY=0.5;entryDx=0;entryDy=0;" edge="1" parent="1" source="W3kfkjVsVUUDzjyGJnqS-121" target="W3kfkjVsVUUDzjyGJnqS-123">
          <mxGeometry relative="1" as="geometry" />
        </mxCell>
        <mxCell id="W3kfkjVsVUUDzjyGJnqS-133" style="edgeStyle=orthogonalEdgeStyle;rounded=0;orthogonalLoop=1;jettySize=auto;html=1;exitX=1;exitY=0.5;exitDx=0;exitDy=0;entryX=0;entryY=0.542;entryDx=0;entryDy=0;entryPerimeter=0;" edge="1" parent="1" source="W3kfkjVsVUUDzjyGJnqS-123" target="W3kfkjVsVUUDzjyGJnqS-125">
          <mxGeometry relative="1" as="geometry" />
        </mxCell>
        <mxCell id="W3kfkjVsVUUDzjyGJnqS-134" style="edgeStyle=orthogonalEdgeStyle;rounded=0;orthogonalLoop=1;jettySize=auto;html=1;entryX=0;entryY=0.5;entryDx=0;entryDy=0;" edge="1" parent="1" source="W3kfkjVsVUUDzjyGJnqS-125" target="W3kfkjVsVUUDzjyGJnqS-127">
          <mxGeometry relative="1" as="geometry">
            <mxPoint x="-90" y="780" as="targetPoint" />
          </mxGeometry>
        </mxCell>
        <mxCell id="W3kfkjVsVUUDzjyGJnqS-139" style="edgeStyle=orthogonalEdgeStyle;rounded=0;orthogonalLoop=1;jettySize=auto;html=1;entryX=0;entryY=0;entryDx=120;entryDy=50;entryPerimeter=0;" edge="1" parent="1" source="W3kfkjVsVUUDzjyGJnqS-136" target="W3kfkjVsVUUDzjyGJnqS-115">
          <mxGeometry relative="1" as="geometry" />
        </mxCell>
        <mxCell id="W3kfkjVsVUUDzjyGJnqS-141" value="Submit Info" style="edgeLabel;html=1;align=center;verticalAlign=middle;resizable=0;points=[];" vertex="1" connectable="0" parent="W3kfkjVsVUUDzjyGJnqS-139">
          <mxGeometry x="-0.1202" y="2" relative="1" as="geometry">
            <mxPoint as="offset" />
          </mxGeometry>
        </mxCell>
        <mxCell id="W3kfkjVsVUUDzjyGJnqS-136" value="P11" style="swimlane;childLayout=stackLayout;horizontal=1;startSize=30;horizontalStack=0;rounded=1;fontSize=14;fontStyle=0;strokeWidth=2;resizeParent=0;resizeLast=1;shadow=0;dashed=0;align=center;verticalAlign=middle;fillColor=#60a917;fontColor=#ffffff;strokeColor=#2D7600;" vertex="1" parent="1">
          <mxGeometry x="-500" y="722" width="120" height="90" as="geometry" />
        </mxCell>
        <mxCell id="W3kfkjVsVUUDzjyGJnqS-137" value="Send Employee&#xa;Â Information&#xa;to DM" style="align=center;strokeColor=none;fillColor=none;spacingLeft=4;fontSize=12;verticalAlign=middle;resizable=0;rotatable=0;part=1;" vertex="1" parent="W3kfkjVsVUUDzjyGJnqS-136">
          <mxGeometry y="30" width="120" height="60" as="geometry" />
        </mxCell>
      </root>
    </mxGraphModel>
  </diagram>
</mxfile>
